<svg width="103" height="98" viewBox="0 0 103 98" fill="none" xmlns="http://www.w3.org/2000/svg">
<rect x="58.7473" y="92.5225" width="25.7448" height="5.74885" rx="2.87442" transform="rotate(-30 58.7473 92.5225)" fill="#F8D794"/>
<rect x="21.0364" y="80.1494" width="25.7448" height="5.74885" rx="2.87442" transform="rotate(30 21.0364 80.1494)" fill="#F8D794"/>
<path d="M9.41028 68.4831C7.2739 71.3367 2.2466 80.1181 0 84.1521C0 79.142 0.0762996 68.0007 0.381498 63.5165C0.762996 57.9114 1.90749 54.854 3.30632 50.6503C4.70514 46.4467 8.13863 41.0959 10.8091 37.2782C13.4796 33.4606 18.1847 29.5033 22.6356 26.0638C27.0864 22.6243 35.6065 19.6943 37.8955 19.0573C40.1845 18.4204 46.4156 17.1465 52.3924 17.1465C58.3692 17.1465 65.9992 19.1847 68.7968 20.0765C71.5945 20.9682 79.3516 25.1721 83.9296 28.739C88.5075 32.3059 95.3745 41.6054 98.2993 47.2106C100.639 51.6947 101.309 59.3551 101.86 63.5165L102.877 85.0455C100.843 81.3936 96.2138 73.1727 93.9757 69.5039C91.7376 65.835 86.6848 61.0961 84.4382 59.1853C87.0239 56.1279 92.2208 49.8603 92.3225 49.2488C92.4243 48.6374 92.2801 48.2297 92.1954 48.1023C92.0258 47.8475 91.5341 47.2106 90.9237 46.701C90.3133 46.1915 88.9738 46.4038 88.3804 46.5736L80.2418 56.0005C79.0973 55.2786 76.5794 53.682 75.6638 53.0705C74.7482 52.4591 71.8064 51.2022 70.45 50.6501C72.1879 47.5928 75.7146 41.3252 75.9181 40.7137C76.1216 40.1022 75.8333 39.4398 75.6638 39.185C75.0703 38.7179 73.7054 37.7582 72.9933 37.6563C72.2812 37.5544 71.5945 38.1235 71.3401 38.4207L65.109 48.9941C63.7102 48.6119 60.6073 47.7966 59.3865 47.5928C58.1657 47.3889 55.402 47.2531 54.1727 47.2107V35.6181C54.1727 34.8028 53.2402 34.0045 52.7739 33.7073C52.2652 33.6224 51.0699 33.5035 50.3577 33.7073C49.6456 33.9111 48.9589 35.1511 48.7046 35.7455V47.3381C47.3481 47.3805 44.2792 47.5164 42.8549 47.7202C41.4307 47.9241 38.9552 48.6544 37.8955 48.9941C36.1152 45.8518 32.4019 39.338 31.7915 38.4207C31.1811 37.5035 30.1807 37.2769 29.7568 37.2782C29.2058 37.5742 27.9511 38.268 27.3407 38.6756C26.7303 39.0833 27.0864 40.7139 27.3407 41.4782L32.5545 50.6503C31.1133 51.3722 28.0528 52.8924 27.3407 53.1981C26.6286 53.5039 24.0768 55.1078 22.8899 55.8716C20.7705 53.2813 16.4553 48.1279 15.6414 47.2107C14.6241 46.0641 13.9883 45.937 13.0981 46.0642C12.2169 46.1902 11.1906 47.209 10.8091 48.1007C10.5039 48.8141 10.9363 49.7568 11.1906 50.1389L18.5662 59.1836C16.4044 61.0945 11.5467 65.6296 9.41028 68.4831Z" fill="#F8D794"/>
<path d="M51.4505 13.0631C45.6132 12.9642 34.6811 15.7027 30.2007 17.1462C29.6886 11.0827 37.8814 4.27859 40.5696 2.91758C42.7202 1.82877 46.7141 -0.4229 51.4505 0.0708596C56.4429 -0.546662 62.5875 3.04091 64.3796 4.27887C69.041 7.49878 72.7003 13.8048 72.7003 17.1462C68.0066 15.7852 57.2878 13.1621 51.4505 13.0631Z" fill="#F8D794"/>
</svg>
