<svg width="32" height="32" viewBox="0 0 32 32" fill="none" xmlns="http://www.w3.org/2000/svg">
<path d="M27.2933 21.742C27.2933 27.4076 22.2368 32.0004 15.9992 32.0004C9.76163 32.0004 4.70508 27.4076 4.70508 21.742C4.70508 16.0764 9.76163 10.7148 15.9992 10.7148C22.2368 10.7148 27.2933 16.0764 27.2933 21.742Z" fill="#231E14"/>
<path d="M6.38859 14.2643C5.89996 14.8586 4.75016 16.6877 4.23633 17.528C4.23633 16.4844 4.25378 14.1638 4.32358 13.2298C4.41084 12.0623 4.6726 11.4254 4.99253 10.5499C5.31246 9.67426 6.09774 8.55974 6.70852 7.76456C7.31929 6.96937 8.39542 6.14512 9.41338 5.42869C10.4313 4.71226 12.38 4.10198 12.9035 3.9693C13.427 3.83663 14.8522 3.57129 16.2192 3.57129C17.5861 3.57129 19.3312 3.99584 19.9711 4.18158C20.6109 4.36732 22.3851 5.24295 23.4321 5.98591C24.4792 6.72887 26.0497 8.66587 26.7187 9.83338C27.2538 10.7674 27.407 12.363 27.5331 13.2298L27.7657 17.7141C27.3004 16.9534 26.2417 15.2411 25.7298 14.4769C25.2179 13.7127 24.0623 12.7256 23.5485 12.3276C24.1399 11.6908 25.3284 10.3853 25.3517 10.2579C25.375 10.1306 25.342 10.0457 25.3226 10.0191C25.2838 9.96606 25.1714 9.83338 25.0318 9.72725C24.8922 9.62111 24.5858 9.66533 24.4501 9.70071L22.5887 11.6643C22.3269 11.5139 21.751 11.1813 21.5416 11.054C21.3322 10.9266 20.6594 10.6648 20.3492 10.5498C20.7467 9.91299 21.5533 8.6075 21.5998 8.48013C21.6463 8.35277 21.5804 8.21479 21.5416 8.16172C21.4059 8.06443 21.0937 7.86454 20.9309 7.84331C20.768 7.82208 20.6109 7.94062 20.5528 8.00253L19.1276 10.2049C18.8077 10.1253 18.098 9.95544 17.8188 9.91299C17.5396 9.87053 16.9075 9.84224 16.6263 9.8334V7.41876C16.6263 7.24894 16.4131 7.08267 16.3064 7.02076C16.1901 7.00308 15.9167 6.97831 15.7538 7.02076C15.5909 7.06322 15.4339 7.32149 15.3757 7.44531V9.85994C15.0655 9.86878 14.3636 9.89708 14.0378 9.93954C13.7121 9.98199 13.1459 10.1341 12.9035 10.2049C12.4963 9.55037 11.6471 8.19358 11.5075 8.00253C11.3679 7.81149 11.1391 7.76428 11.0421 7.76456C10.9161 7.8262 10.6291 7.97072 10.4895 8.05563C10.3499 8.14054 10.4313 8.48018 10.4895 8.63938L11.682 10.5499C11.3523 10.7002 10.6524 11.0169 10.4895 11.0805C10.3266 11.1442 9.743 11.4783 9.47155 11.6374C8.98681 11.0979 7.99987 10.0244 7.81373 9.8334C7.58105 9.59459 7.43563 9.5681 7.23204 9.5946C7.03049 9.62084 6.79577 9.83304 6.70852 10.0188C6.63871 10.1674 6.7376 10.3637 6.79577 10.4433L8.48267 12.3273C7.98824 12.7253 6.87721 13.6699 6.38859 14.2643Z" fill="#231E14"/>
<path d="M16.0021 2.72094C14.667 2.70032 12.1667 3.27073 11.142 3.5714C11.0249 2.30843 12.8986 0.891194 13.5135 0.607706C14.0053 0.380916 14.9188 -0.0880864 16.0021 0.0147594C17.1439 -0.113865 18.5493 0.633395 18.9591 0.891253C20.0253 1.56193 20.8622 2.87542 20.8622 3.57141C19.7887 3.28792 17.3372 2.74156 16.0021 2.72094Z" fill="#231E14"/>
<path d="M29.2492 21.1867C29.2673 20.2253 29.1128 18.6553 28.8628 17.8574C30.1358 18.0435 31.2172 19.1225 31.4662 19.5652C31.6654 19.9195 32 20.2796 32 21.3766C32 22.4668 31.4504 23.1829 31.2213 23.4814L31.2171 23.4869C30.628 24.2547 29.4741 24.8574 28.8627 24.8574C29.1118 24.0843 29.2311 22.1482 29.2492 21.1867Z" fill="#231E14"/>
<path d="M2.75078 21.5271C2.73267 22.4886 2.88718 24.0586 3.13725 24.8564C1.86416 24.6704 0.782839 23.5914 0.533812 23.1486C0.334591 22.7944 1.55156e-09 22.4342 9.48944e-07 21.3373C1.24292e-06 20.247 0.54956 19.531 0.778678 19.2325L0.782893 19.227C1.37205 18.4592 2.52587 17.8565 3.13726 17.8565C2.88823 18.6296 2.76889 20.5657 2.75078 21.5271Z" fill="#231E14"/>
<rect x="12.9746" y="12.8574" width="6.00364" height="1.22091" rx="0.610457" fill="#F8D794"/>
<rect width="5.87421" height="1.25191" rx="0.625957" transform="matrix(0.885107 -0.465388 0.535428 0.844581 17.7773 18.9355)" fill="#F8D794"/>
<path d="M12.9746 26.3307C12.9746 26.1734 13.0534 26.0261 13.1861 25.9416C15.2884 24.6029 16.5274 24.5588 18.7598 25.9409C18.8965 26.0256 18.9783 26.1759 18.9783 26.3368C18.9783 26.7292 18.5237 26.9522 18.1951 26.7376C16.4785 25.6165 15.312 25.6787 13.7544 26.7244C13.4293 26.9426 12.9746 26.7223 12.9746 26.3307Z" fill="#F8D794"/>
<path d="M18.7284 22.6334C18.8619 22.5551 19.0305 22.5417 19.1803 22.6004C21.6061 23.5503 22.3449 24.5128 22.3243 27.0444C22.323 27.1965 22.2388 27.3349 22.102 27.4151C21.7437 27.6253 21.2636 27.3401 21.2734 26.9418C21.3197 25.052 20.6224 24.17 18.8644 23.5089C18.4616 23.3574 18.3713 22.8428 18.7284 22.6334Z" fill="#F8D794"/>
<path d="M13.3224 22.6334C13.1889 22.5551 13.0203 22.5417 12.8705 22.6004C10.4446 23.5503 9.70592 24.5128 9.72651 27.0444C9.72775 27.1965 9.81202 27.3349 9.94876 27.4151C10.3071 27.6253 10.7872 27.3401 10.7774 26.9418C10.7311 25.052 11.4284 24.17 13.1864 23.5089C13.5892 23.3574 13.6795 22.8428 13.3224 22.6334Z" fill="#F8D794"/>
<rect width="5.87421" height="1.25191" rx="0.625957" transform="matrix(0.885107 0.465388 -0.535428 0.844581 8.98242 16.3076)" fill="#F8D794"/>
<rect x="14.1992" y="14.9805" width="3.55555" height="1.22091" rx="0.610457" fill="#F8D794"/>
</svg>
