<svg width="1333" height="390" viewBox="0 0 1333 390" fill="none" xmlns="http://www.w3.org/2000/svg">
<path d="M220 79.5V331H174V224.5H45.5V331H1.49012e-07V79.5H45.5V178H174V79.5H220ZM493.539 228C493.539 240.667 493.539 253.167 493.539 265.5C493.539 277.5 493.372 288.333 493.039 298C493.039 307.333 493.039 315 493.039 321C493.039 326.667 493.039 329.667 493.039 330H447.039V303.5C437.372 315.5 425.706 324 412.039 329C398.372 334 384.372 336.5 370.039 336.5C358.372 336.5 346.706 334.667 335.039 331C323.372 327.667 312.872 322.5 303.539 315.5C294.206 308.5 286.706 299.833 281.039 289.5C275.372 278.833 272.539 266.5 272.539 252.5C272.539 238.167 274.872 225.833 279.539 215.5C284.539 205.167 291.206 196.833 299.539 190.5C308.206 183.833 318.206 179 329.539 176C341.206 173 353.872 171.5 367.539 171.5C379.539 171.5 392.206 172.5 405.539 174.5C419.206 176.5 433.039 179.667 447.039 184V182C447.706 179.333 448.039 177 448.039 175C448.039 173 448.039 170.833 448.039 168.5C448.039 159.5 446.206 151.667 442.539 145C439.206 138.333 434.706 132.833 429.039 128.5C423.372 124.167 416.872 121 409.539 119C402.539 116.667 395.206 115.5 387.539 115.5C380.206 115.5 373.039 116.333 366.039 118C359.039 119.667 352.706 122.333 347.039 126C341.372 129.667 336.706 134.333 333.039 140C329.372 145.333 327.372 151.833 327.039 159.5H281.039C282.039 144.833 285.539 132 291.539 121C297.872 110 305.706 101 315.039 94C324.706 86.6667 335.539 81.1666 347.539 77.5C359.539 73.8333 371.872 72 384.539 72C399.206 72 413.039 74 426.039 78C439.039 82 450.372 88.3333 460.039 97C470.039 105.667 477.872 116.833 483.539 130.5C489.539 143.833 492.706 160.167 493.039 179.5V182C498.039 181.333 503.039 180.5 508.039 179.5C513.372 178.5 518.872 177.333 524.539 176V223L493.539 228ZM447.539 229C445.539 229 441.872 228.333 436.539 227C431.539 225.667 425.539 224.333 418.539 223C411.872 221.333 404.539 219.833 396.539 218.5C388.872 217.167 381.372 216.5 374.039 216.5C368.372 216.5 362.206 217.167 355.539 218.5C349.206 219.5 343.206 221.5 337.539 224.5C332.206 227.5 327.706 231.333 324.039 236C320.372 240.667 318.539 246.5 318.539 253.5C318.539 259.167 320.039 264.333 323.039 269C326.372 273.667 330.706 277.833 336.039 281.5C341.372 284.833 347.539 287.5 354.539 289.5C361.539 291.5 369.039 292.5 377.039 292.5C386.372 292.5 395.206 291 403.539 288C411.872 284.667 419.206 280.667 425.539 276C432.206 271.333 437.372 266.333 441.039 261C445.039 255.667 447.206 250.833 447.539 246.5V229ZM745.207 44.5C740.54 42.8333 736.04 41.6667 731.707 41C727.707 40.3333 723.874 40 720.207 40C715.54 40 711.207 40.3333 707.207 41C703.207 41.6667 698.374 42.5 692.707 43.5C687.374 44.8333 682.04 46 676.707 47C671.374 48 665.874 48.5 660.207 48.5C651.207 48.5 641.874 46.8333 632.207 43.5V0.99998C637.207 3.99998 641.874 6.16665 646.207 7.49999C650.874 8.49999 655.54 9 660.207 9C664.207 9 668.374 8.66666 672.707 7.99998C677.04 6.99999 681.54 6 686.207 4.99999C691.207 3.33332 696.374 2.16665 701.707 1.49997C707.374 0.499987 713.207 -6.67572e-06 719.207 -6.67572e-06C723.54 -6.67572e-06 727.707 0.333322 731.707 0.99998C736.04 1.33331 740.54 2.33331 745.207 3.99997V44.5ZM795.207 80.5V330.5H750.207V155.5L616.707 331H574.707V80.5H619.707V255.5L753.207 80.5H795.207ZM1053.73 192C1060.73 194.333 1067.07 197.167 1072.73 200.5C1078.73 203.5 1083.73 207.333 1087.73 212C1092.07 216.667 1095.4 222.333 1097.73 229C1100.07 235.667 1101.23 243.5 1101.23 252.5C1101.23 268.167 1097.73 281.333 1090.73 292C1084.07 302.667 1075.23 311.333 1064.23 318C1053.57 324.333 1041.4 328.833 1027.73 331.5C1014.07 334.5 1000.23 336 986.234 336C974.901 336 963.901 335.333 953.234 334C942.568 332.667 932.734 331.167 923.734 329.5C915.068 327.5 907.568 325.5 901.234 323.5C894.901 321.5 890.401 320 887.734 319V129.5H864.734V84H869.234C878.234 84 887.068 83.5 895.734 82.5C904.401 81.1667 913.068 80 921.734 79C930.401 77.6667 939.234 76.5 948.234 75.5C957.568 74.1667 967.068 73.5 976.734 73.5C988.401 73.5 1000.07 74.6667 1011.73 77C1023.4 79 1033.73 82.8333 1042.73 88.5C1052.07 94.1667 1059.57 101.833 1065.23 111.5C1070.9 121.167 1073.73 133.5 1073.73 148.5C1073.73 154.833 1072.9 160.333 1071.23 165C1069.9 169.333 1068.23 173.167 1066.23 176.5C1064.23 179.833 1062.07 182.833 1059.73 185.5C1057.4 187.833 1055.4 190 1053.73 192ZM986.734 292.5C992.734 292.5 999.901 292.167 1008.23 291.5C1016.57 290.5 1024.4 288.667 1031.73 286C1039.07 283 1045.23 278.833 1050.23 273.5C1055.57 268.167 1058.23 261 1058.23 252C1058.23 245 1056.07 239.5 1051.73 235.5C1047.73 231.167 1042.57 228 1036.23 226C1030.23 223.667 1023.73 222.167 1016.73 221.5C1009.73 220.5 1003.57 219.833 998.234 219.5C996.901 219.833 991.734 220 982.734 220V173.5H999.734C1003.4 173.167 1007.23 172.667 1011.23 172C1015.23 171.333 1018.73 170.167 1021.73 168.5C1025.07 166.5 1027.73 163.833 1029.73 160.5C1031.73 156.833 1032.73 152.167 1032.73 146.5C1032.73 140.167 1031.07 135.167 1027.73 131.5C1024.73 127.5 1020.57 124.5 1015.23 122.5C1010.23 120.5 1004.57 119.333 998.234 119C991.901 118.333 985.734 118 979.734 118C973.734 118 966.734 118.5 958.734 119.5C950.734 120.5 941.901 121.5 932.234 122.5V285.5C940.901 286.833 949.901 288.333 959.234 290C968.901 291.667 978.068 292.5 986.734 292.5ZM1332.13 80C1322.13 96.6666 1313.46 116 1306.13 138C1299.13 159.667 1291.96 182 1284.63 205C1277.63 228 1269.96 250.5 1261.63 272.5C1253.3 294.5 1242.8 314.167 1230.13 331.5C1217.8 349.167 1202.63 363.333 1184.63 374C1166.63 384.667 1144.46 390 1118.13 390H1109.63V347C1124.96 347 1137.8 345.667 1148.13 343C1158.46 340.333 1167.3 336.333 1174.63 331C1181.96 326 1188.3 319.833 1193.63 312.5C1198.96 305.167 1204.3 296.667 1209.63 287L1104.63 80H1152.13L1232.63 236.5C1236.63 223.833 1240.3 211.167 1243.63 198.5C1247.3 185.833 1251.3 173.167 1255.63 160.5C1259.96 147.5 1264.8 134.333 1270.13 121C1275.46 107.667 1281.96 94 1289.63 80H1332.13Z" fill="#F8D794"/>
</svg>
