<svg width="226" height="91" viewBox="0 0 226 91" fill="none" xmlns="http://www.w3.org/2000/svg">
<path fill-rule="evenodd" clip-rule="evenodd" d="M26.8149 0.0504804C23.7299 0.377851 21.5543 2.03462 20.6452 4.74878C20.2682 5.87401 20.1416 6.81645 20.0933 8.85676C20.0227 11.8358 20.2823 14.1897 20.8745 15.9406C21.252 17.0566 22.169 18.8474 22.9192 19.9336C23.2915 20.4724 24.5614 22.1623 25.7415 23.6889C29.5235 28.5819 29.9853 29.3027 30.3811 30.9321C30.6718 32.1291 30.7633 35.128 30.5524 36.5471C30.3651 37.8059 30.0853 38.3282 29.4321 38.6375C28.6477 39.0089 27.5617 38.8464 27.0169 38.2761C26.3495 37.5772 26.2529 36.7495 26.2529 31.7217V27.9749H23.0015H19.7499L19.7524 32.9753C19.7537 35.7256 19.7899 38.2512 19.8327 38.588C20.02 40.0604 20.5041 41.4139 21.2082 42.4348C22.2063 43.8816 24.1043 44.905 26.3332 45.1982C27.1528 45.306 29.6627 45.3022 30.5482 45.1918C34.3409 44.7192 36.7339 42.2296 37.445 38.0165C37.6829 36.6072 37.7657 34.5573 37.6678 32.4993C37.5275 29.5492 37.1897 28.0069 36.2746 26.1381C35.635 24.8322 34.7167 23.5007 32.0049 19.9472C28.3525 15.1613 27.8111 14.3652 27.3366 13.0833C27.0077 12.1947 26.8839 11.4538 26.837 10.0925C26.7875 8.65699 26.9022 7.38996 27.1289 6.86878C27.4136 6.21428 28.1713 5.86454 29.0628 5.9759C29.8294 6.07166 30.2541 6.41192 30.4859 7.1163C30.6016 7.46801 30.6243 8.03588 30.6495 11.2187L30.6789 14.9128H33.8449H37.011L37.0105 10.6063C37.0101 6.02504 36.9694 5.3792 36.6059 4.17731C36.3139 3.21136 35.9126 2.52242 35.2483 1.84702C34.3752 0.959204 33.3734 0.47247 31.7903 0.166979C31.0195 0.018233 27.8241 -0.0566294 26.8149 0.0504804ZM0 22.546V44.7109H3.29165H6.5833V34.9551V25.1993H8.83126H11.0792V34.9551V44.7109H14.3307H17.5823V22.546V0.381117H14.3307H11.0792V9.23887V18.0967H8.83126H6.5833V9.23887V0.381117H3.29165H0V22.546ZM39.8209 22.546V44.7109H47.448H55.075V41.3637V38.0165H50.7396H46.4043V31.5671V25.1176H49.6959H52.9876V21.7705V18.4232H49.6959H46.4043V12.5861V6.74893H50.5791H54.7538V3.56503V0.381117H47.2874H39.8209V22.546ZM66.6358 0.472552C66.6358 0.522923 65.8962 6.63047 64.992 14.0449C64.0878 21.4595 62.8962 31.2548 62.3437 35.8123C61.7912 40.3698 61.3176 44.2364 61.291 44.4047L61.2427 44.7109H64.2604H67.2782L67.2822 44.5272C67.2844 44.4262 67.4754 42.5618 67.7066 40.3841L68.1268 36.4246L70.5787 36.403L73.0307 36.3814L73.2152 38.1582C73.3165 39.1355 73.5126 41.0004 73.6507 42.3025L73.9019 44.6701L77.1332 44.6914C78.9104 44.7031 80.3644 44.6843 80.3644 44.6494C80.3644 44.6147 79.5546 38.3597 78.5646 30.7495C77.5747 23.1395 76.2832 13.1934 75.6945 8.64711L74.6241 0.38128L70.63 0.381198C67.7346 0.381117 66.6358 0.406261 66.6358 0.472552ZM81.3279 22.546V44.7109H84.6597H87.9915V34.7791V24.8472L89.2958 24.8981C90.8805 24.9598 91.3111 25.0709 91.7106 25.5205C91.8672 25.6967 92.0407 25.9812 92.0968 26.1528C92.1751 26.3918 92.2098 28.3889 92.2489 34.7101C92.3032 43.5804 92.3005 43.5317 92.7241 44.3757L92.8922 44.7109H96.2226C98.9364 44.7109 99.5521 44.6909 99.5521 44.6025C99.5521 44.5429 99.4587 44.2602 99.3448 43.9744C98.8768 42.8042 98.8901 43.0877 98.835 33.1998C98.7789 23.0709 98.8207 23.793 98.2264 22.7093C97.826 21.978 96.9389 21.1782 96.1906 20.8731L95.9201 20.7628L96.3116 20.5611C96.8793 20.2681 97.7752 19.3123 98.1249 18.6258C98.286 18.3106 98.5013 17.7412 98.6036 17.3604L98.7896 16.668V11.0349V5.4019L98.601 4.63898C98.1792 2.93967 97.3135 1.76277 96.0197 1.1326C94.5383 0.410588 94.1913 0.381117 87.1707 0.381117H81.3279V22.546ZM99.9534 3.56503V6.74893H102.723H105.493V25.7299V44.7109H108.745H111.996V25.7299V6.74893H114.766H117.536V3.56503V0.381117H108.745H99.9534V3.56503ZM126.143 8.48375C125.6 12.9402 124.4 22.8133 123.475 30.4241C122.552 38.0349 121.778 44.3629 121.755 44.4864L121.715 44.7109H124.716H127.717L127.767 44.3231C127.793 44.1099 127.977 42.374 128.176 40.4657C128.373 38.5574 128.557 36.8583 128.582 36.6899L128.63 36.3837H131.071C132.414 36.3837 133.513 36.4113 133.513 36.445C133.513 36.4787 133.712 38.3431 133.954 40.5882C134.197 42.8332 134.395 44.6792 134.396 44.6905C134.396 44.7018 135.86 44.7109 137.649 44.7109H140.902L140.86 44.5272C140.825 44.3669 139.511 34.319 136.044 7.67471C135.535 3.76112 135.119 0.519005 135.119 0.470103C135.119 0.407078 133.953 0.381117 131.124 0.381117H127.13L126.143 8.48375ZM142.022 22.546V44.7109H144.993H147.963L147.984 32.0189L148.004 19.3269L151.135 32.0182L154.266 44.7096L156.936 44.7102L159.605 44.7109V22.546V0.381117H156.634H153.664V12.2732C153.664 18.8137 153.647 24.1479 153.627 24.1267C153.588 24.0882 151.392 14.8966 149.211 5.6468C148.565 2.90783 148.018 0.602521 147.994 0.523984C147.956 0.39124 147.743 0.381117 144.988 0.381117H142.022V22.546ZM162.335 22.5461V44.7197L168.135 44.6889C173.278 44.6617 174.004 44.6421 174.538 44.5169C177.617 43.7948 179.217 41.8573 179.772 38.1798C179.855 37.628 179.876 34.3732 179.876 22.3011C179.876 7.94608 179.868 7.06944 179.73 6.2591C179.417 4.4384 178.854 3.21023 177.874 2.21293C177.113 1.43785 176.34 1.00974 175.059 0.654361L174.257 0.431488L168.296 0.402016L162.335 0.372463V22.5461ZM90.9285 6.53888C91.4597 6.70371 91.869 7.11149 92.0585 7.66377C92.1946 8.06265 92.2062 8.42652 92.2062 12.382V16.668L92.0149 17.1579C91.7782 17.7634 91.2862 18.2694 90.7568 18.4529C90.4685 18.553 90.0726 18.5866 89.181 18.5866H87.9915V12.4514V6.31633L89.2558 6.36417C90.0405 6.39389 90.6758 6.46017 90.9285 6.53888ZM171.918 6.61137C172.43 6.84942 172.684 7.19003 172.906 7.93269C173.046 8.39827 173.053 9.11274 173.053 22.3827V36.3429L172.86 36.8328C172.749 37.1168 172.529 37.4646 172.337 37.6605C171.867 38.1431 171.411 38.2614 170.028 38.2614H168.918V22.2889V6.31633L170.198 6.36156C171.34 6.4018 171.527 6.4289 171.918 6.61137ZM71.1687 19.1172C71.4999 22.2154 71.8909 25.8799 72.0376 27.2606L72.3041 29.771H70.5538C69.5912 29.771 68.8036 29.7533 68.8036 29.7316C68.8036 29.7099 68.9651 28.1578 69.1626 26.2823C69.6248 21.8929 70.4877 13.5768 70.4959 13.4322C70.5148 13.0969 70.6201 13.9859 71.1687 19.1172ZM131.351 16.3542C132.149 23.741 132.79 29.7025 132.79 29.7352C132.79 29.7549 131.995 29.771 131.023 29.771H129.256L129.3 29.4649C129.342 29.172 130.288 20.1212 130.754 15.5486C130.876 14.3492 130.989 13.3814 131.006 13.3979C131.022 13.4145 131.178 14.7448 131.351 16.3542ZM43.7091 45.771C41.6173 46.0703 39.9407 46.9128 38.9111 48.182C38.0942 49.1891 37.597 50.3494 37.2847 51.9767C37.1599 52.627 37.1366 53.1349 37.1403 55.1198C37.1451 57.6207 37.2361 58.8746 37.504 60.1331C37.9271 62.12 38.8495 64.1103 40.2506 66.0594C40.4766 66.3737 41.6374 67.8987 42.8303 69.4482C46.204 73.8304 46.6464 74.4796 47.1323 75.7608C47.5447 76.8482 47.6142 77.326 47.6631 79.4073C47.7264 82.0976 47.5622 83.2082 46.9945 83.9325C46.6928 84.3173 46.315 84.493 45.6986 84.5354C44.4568 84.6205 43.6426 83.9314 43.4307 82.616C43.3887 82.3554 43.3542 80.2411 43.3539 77.9174L43.3535 73.6926H40.0618H36.7702L36.7708 78.5705C36.7714 83.5838 36.8055 84.3159 37.0948 85.5223C37.3017 86.3852 38.0047 87.8753 38.471 88.4388C39.4583 89.6321 40.754 90.3731 42.525 90.757C43.544 90.9781 46.2508 91.071 47.3981 90.9237C50.4048 90.539 52.3549 89.1938 53.5712 86.6659C54.552 84.627 54.8928 81.903 54.6834 77.7745C54.4861 73.8894 53.7481 71.9633 51.0703 68.3453C50.7379 67.8963 49.6676 66.4819 48.6917 65.2022C45.6247 61.1805 45.2432 60.6383 44.6996 59.5283C44.1114 58.3272 43.9313 57.4832 43.8635 55.6096C43.7861 53.4708 44.0337 52.3869 44.7024 51.9369C45.3307 51.5141 46.5475 51.5871 47.0404 52.077C47.6504 52.6835 47.6888 52.9857 47.6888 57.1758V60.6304H50.9077H54.1265L54.088 56.1607C54.0472 51.4085 54.0192 51.0297 53.6196 49.8331C53.0507 48.1291 51.9284 46.8895 50.4259 46.3057C49.2803 45.8606 48.558 45.7601 46.2838 45.7294C45.1358 45.7139 43.9772 45.7326 43.7091 45.771ZM72.5077 45.7836C70.5132 45.9958 68.9675 46.7246 67.784 48.011C67.0123 48.8495 66.5489 49.6574 66.1525 50.8551C65.5123 52.789 65.5582 51.4951 65.5293 68.3861C65.5113 78.9489 65.5299 83.6838 65.5916 84.2362C65.9484 87.4262 67.6332 89.8886 70.0079 90.6908C70.436 90.8354 70.7705 90.8729 71.8709 90.8996C73.4284 90.9372 73.7271 90.8761 74.8438 90.2908C76.1115 89.6266 77.5324 88.0521 78.1864 86.5873L78.4173 86.0702L78.5426 86.5145C78.6532 86.9063 79.2796 89.2911 79.4902 90.1224L79.5678 90.4285H81.4515H83.335V76.9582V63.4878H78.6785H74.022V66.8758V70.2638H75.5073H76.9925V76.1332C76.9925 81.767 76.9861 82.0238 76.8324 82.5298C76.4453 83.8042 75.1803 84.4821 73.8956 84.1038C73.2516 83.9141 72.825 83.4644 72.5661 82.7017L72.3762 82.1422V68.0187V53.8952L72.5562 53.4462C72.8995 52.5895 73.5189 52.1451 74.374 52.1418C75.5252 52.1374 76.1792 52.6794 76.4207 53.8381C76.4779 54.1122 76.5109 55.3456 76.5109 57.2056V60.1406H79.7623H83.0139L83.013 56.9771C83.0117 52.1789 82.7972 50.7304 81.8157 48.8893C81.2567 47.8411 80.0775 46.8036 78.9223 46.3437C77.5206 45.7856 74.7576 45.5443 72.5077 45.7836ZM118.138 45.7782C114.338 46.2988 112.162 48.5602 111.677 52.4909C111.57 53.3597 111.571 57.2298 111.68 58.2456C111.998 61.2528 112.793 63.3476 114.56 65.8404C114.9 66.3201 116.044 67.833 117.102 69.2025C120.269 73.3025 120.822 74.0826 121.357 75.2134C121.962 76.4913 122.112 77.4529 122.109 80.0196C122.106 82.562 121.924 83.5022 121.325 84.0863C120.569 84.8224 118.937 84.6584 118.347 83.7871C117.826 83.0172 117.825 83.0038 117.796 78.1215L117.769 73.6926H114.481H111.194L111.195 78.4481C111.195 84.1288 111.25 84.8104 111.842 86.4621C112.729 88.9435 114.78 90.4824 117.721 90.8739C118.905 91.0319 121.087 91.0346 122.154 90.8807C126.015 90.3222 128.263 87.8642 128.986 83.4076C129.155 82.3751 129.23 78.1544 129.105 76.8472C128.798 73.6469 127.923 71.5625 125.541 68.3544C125.137 67.8106 123.933 66.2215 122.867 64.8231C119.971 61.0304 119.349 60.1125 118.906 58.9845C118.411 57.7237 118.38 57.5069 118.38 55.3239C118.379 53.0424 118.46 52.5907 118.954 52.1024C119.582 51.4818 120.896 51.4966 121.551 52.1316C122.094 52.6592 122.112 52.8104 122.112 56.9715V60.6304H125.323H128.535L128.533 56.5689C128.533 54.3351 128.496 52.1584 128.452 51.7319C128.11 48.4207 126.572 46.5876 123.584 45.9314C122.924 45.7864 122.46 45.7534 120.747 45.7296C119.622 45.7139 118.447 45.7358 118.138 45.7782ZM137.246 45.8103C133.941 46.3435 131.994 48.2768 131.16 51.8536C130.989 52.5883 130.989 52.6041 130.963 67.733C130.939 81.5413 130.948 82.9633 131.07 83.8566C131.302 85.5468 131.87 87.1462 132.594 88.1496C132.994 88.7026 133.909 89.5542 134.45 89.8736C135.791 90.6685 137.35 91 139.746 91C141.795 91 143.151 90.7515 144.333 90.1586C146.39 89.1275 147.644 87.1177 148.133 84.0683C148.272 83.2014 148.284 82.6193 148.284 77.1419V71.1618H145.077H141.868L141.845 76.8969C141.822 82.5163 141.819 82.6406 141.653 83.051C141.261 84.0203 140.707 84.4101 139.72 84.4129C138.978 84.415 138.494 84.1806 138.13 83.6415C137.625 82.8977 137.647 83.6132 137.647 68.0595C137.647 54.5433 137.654 53.873 137.795 53.4091C137.972 52.8252 138.388 52.3625 138.853 52.231C139.029 52.1815 139.428 52.1407 139.74 52.1405C140.476 52.1398 141.072 52.4241 141.404 52.9335C141.827 53.5829 141.859 53.98 141.86 58.6099L141.862 62.8347H145.073H148.284L148.284 57.9568C148.282 52.8122 148.246 52.1623 147.888 50.7522C147.461 49.0756 146.392 47.5736 145.044 46.7601C144.371 46.3539 143.157 45.9622 142.12 45.8172C141.016 45.6629 138.185 45.6588 137.246 45.8103ZM177.829 45.7473C174.063 46.1576 171.78 48.2316 170.928 52.0167C170.556 53.6702 170.564 53.3408 170.564 68.2636C170.564 81.5976 170.572 82.4396 170.712 83.326C171.175 86.2614 172.129 88.1674 173.758 89.4131C175.336 90.6191 177.139 91.0582 180.17 90.9768C182.941 90.902 184.376 90.4566 185.828 89.2196C187.229 88.0271 188.091 86.2221 188.527 83.5709L188.708 82.4688V68.2636C188.708 55.0825 188.698 53.9945 188.567 53.1708C188.009 49.6739 186.846 47.7453 184.614 46.6112C183.778 46.1869 182.825 45.9214 181.605 45.7732C180.97 45.696 178.458 45.6788 177.829 45.7473ZM197.499 45.8061C195.319 46.1476 193.907 46.8873 192.726 48.3053C191.894 49.3051 191.338 50.5803 190.938 52.4107L190.72 53.4054L190.692 67.6513C190.674 77.6936 190.691 82.1623 190.755 82.7954C190.917 84.4229 191.232 85.6118 191.84 86.8772C192.3 87.8351 192.774 88.4647 193.542 89.1434C195.021 90.4488 196.886 91.0018 199.797 90.9985C203.006 90.9949 204.905 90.3479 206.42 88.7427C207.757 87.3251 208.481 85.3358 208.744 82.3513C208.798 81.7296 208.818 76.6852 208.801 67.5697L208.774 53.732L208.598 52.7523C208.188 50.4796 207.52 48.975 206.414 47.8315C205.486 46.8742 204.149 46.2022 202.551 45.8908C201.63 45.7113 198.445 45.6579 197.499 45.8061ZM0 68.2636V90.4285L5.07797 90.4272C7.8709 90.4265 10.5895 90.3894 11.1194 90.3449C14.6656 90.0464 16.6232 88.2246 17.3572 84.5394L17.5421 83.6117V68.1412C17.5421 53.3599 17.5354 52.6342 17.3916 51.8543C16.7672 48.4676 15.1344 46.7579 12.0121 46.2213C11.4247 46.1203 10.3028 46.0988 5.64952 46.0988H0V68.2636ZM20.071 68.2636V90.4285H27.7382H35.4053V87.0405V83.6525H31.0298H26.6544V77.2439V70.8352H29.946H33.2377V67.4881V64.1409H29.946H26.6544V58.3037V52.4666H30.8693H35.0842V49.2827V46.0988H27.5776H20.071V68.2636ZM56.5201 68.2636V90.4285H59.8518H63.1836V68.2636V46.0988H59.8518H56.5201V68.2636ZM85.5829 68.2636V90.4285H88.5532H91.5238L91.5442 77.7683L91.5638 65.1082L94.6887 77.7683L97.8126 90.4285H100.489H103.165V68.2636V46.0988H100.15H97.1355L97.1818 57.9976C97.2129 66.0377 97.2014 69.8434 97.1462 69.7331C97.0706 69.5809 95.6185 63.5143 92.7338 51.3041C92.0683 48.487 91.5238 46.1633 91.5238 46.1405C91.5238 46.1175 90.1873 46.0988 88.5535 46.0988H85.5829V68.2636ZM150.453 68.2636V90.4285H153.744H157.036V80.6727V70.9169H159.244H161.451V80.6727V90.4285H164.743H168.035V68.2636V46.0988H164.743H161.451V54.9565V63.8143H159.244H157.036V54.9565V46.0988H153.744H150.453V68.2636ZM211.308 68.2636V90.4285H218.654H226V86.9997V83.5709H221.945H217.892V64.8349V46.0988H214.599H211.308V68.2636ZM9.43336 52.2247C9.8859 52.3595 10.3961 52.9217 10.5578 53.464C10.6286 53.7012 10.7198 54.3177 10.7604 54.8341C10.8615 56.1151 10.8593 80.0893 10.758 81.2523C10.6305 82.7175 10.3341 83.3281 9.56354 83.7128C9.13894 83.9249 9.03769 83.9399 7.84778 83.9659L6.5833 83.9935V68.0143V52.0352L7.84778 52.0822C8.5432 52.108 9.25675 52.1722 9.43336 52.2247ZM180.41 52.2348C180.804 52.3548 181.324 52.804 181.515 53.1896C181.94 54.0467 181.924 53.4529 181.924 68.2334C181.924 77.6609 181.897 82.056 181.837 82.3842C181.637 83.4842 181.161 84.1127 180.344 84.3541C179.306 84.6611 178.192 84.2081 177.731 83.2907C177.292 82.4172 177.317 83.2196 177.287 68.9984C177.27 60.8795 177.291 55.4945 177.339 54.9129C177.442 53.6808 177.631 53.1617 178.148 52.6877C178.364 52.4913 178.66 52.2914 178.807 52.2436C179.173 52.1246 180.033 52.1199 180.41 52.2348ZM200.79 52.367C201.2 52.5747 201.612 53.0852 201.794 53.6074C202.068 54.3992 202.084 55.2972 202.059 68.8759L202.035 82.3055L201.848 82.8319C201.647 83.3988 201.361 83.8564 201.063 84.0842C200.961 84.1627 200.644 84.2891 200.358 84.3654C199.116 84.6967 197.988 84.0407 197.597 82.7597C197.469 82.3372 197.459 81.3211 197.459 68.182V54.0586L197.65 53.5687C197.883 52.9712 198.458 52.3651 198.913 52.237C199.433 52.0907 200.376 52.156 200.79 52.367Z" fill="#F8D794"/>
</svg>
