<svg width="41" height="26" viewBox="0 0 41 26" fill="none" xmlns="http://www.w3.org/2000/svg">
<path d="M22.331 26C8.32293 26 0.332917 16.2402 0 0H7.01686C7.24735 11.9199 12.4204 16.969 16.5178 18.01V0H23.1249V10.2803C27.1711 9.83784 31.4222 5.15315 32.8563 0H39.4635C38.9231 2.67257 37.8458 5.20307 36.2992 7.43322C34.7525 9.66336 32.7697 11.5452 30.4747 12.961C33.0364 14.2546 35.2991 16.0856 37.1134 18.3332C38.9277 20.5808 40.2524 23.1939 41 26H33.727C33.0559 23.5627 31.6919 21.3809 29.8059 19.7281C27.9199 18.0753 25.5958 17.0249 23.1249 16.7087V26H22.331Z" fill="#6F221D"/>
</svg>
